<?xml version="1.0" standalone="no"?>
<!DOCTYPE svg PUBLIC "-//W3C//DTD SVG 20010904//EN"
 "http://www.w3.org/TR/2001/REC-SVG-20010904/DTD/svg10.dtd">
<svg version="1.0" xmlns="http://www.w3.org/2000/svg"
 width="2048.000000pt" height="2048.000000pt" viewBox="0 0 2048.000000 2048.000000"
 preserveAspectRatio="xMidYMid meet">

<g transform="translate(0.000000,2048.000000) scale(0.100000,-0.100000)"
fill="#000000" stroke="none">
<path d="M10551 14705 c-23 -14 -47 -25 -52 -25 -5 0 -27 -11 -49 -25 -22 -14
-46 -25 -54 -25 -8 0 -16 -7 -20 -15 -3 -8 -13 -15 -23 -16 -10 0 -31 -9 -48
-20 -16 -10 -37 -22 -45 -25 -8 -3 -30 -13 -49 -21 -18 -8 -109 -92 -202 -186
l-169 -171 0 -51 c0 -28 -4 -55 -9 -60 -5 -6 -11 -46 -13 -90 l-3 -80 38 -3
37 -3 0 -308 0 -308 -22 -11 c-13 -6 -50 -13 -82 -16 -32 -3 -64 -10 -69 -15
-6 -6 -29 -11 -51 -11 -23 0 -50 -7 -60 -15 -11 -8 -37 -15 -57 -15 -21 0 -41
-4 -44 -10 -3 -5 -19 -10 -35 -10 -16 0 -41 -6 -57 -14 -15 -8 -48 -20 -73
-26 -25 -6 -58 -18 -73 -26 -16 -8 -41 -14 -57 -14 -16 0 -32 -4 -35 -10 -3
-5 -13 -10 -22 -10 -8 0 -30 -7 -49 -15 -19 -8 -51 -22 -71 -31 -21 -8 -49
-20 -63 -26 -14 -6 -32 -14 -40 -19 -8 -5 -22 -12 -30 -15 -39 -15 -66 -27
-80 -35 -8 -5 -31 -16 -50 -24 -71 -33 -96 -46 -120 -65 l-25 -20 27 0 c15 0
30 5 33 10 3 6 18 10 33 10 15 0 40 7 56 15 15 8 39 15 52 15 12 0 26 5 29 10
3 6 21 10 39 10 18 0 41 7 52 15 10 8 36 15 56 15 20 0 40 5 43 10 3 6 25 10
48 10 23 0 55 7 71 15 15 8 45 15 65 15 20 1 47 7 61 15 14 8 48 14 77 15 28
0 55 5 58 10 3 6 29 10 56 10 28 0 60 6 72 12 22 12 71 19 293 36 62 5 118 13
125 18 14 9 371 25 554 25 246 1 531 -13 573 -27 23 -8 81 -14 127 -14 46 0
87 -4 90 -10 3 -5 41 -10 83 -10 48 -1 86 -6 102 -15 14 -8 48 -14 77 -15 28
0 55 -4 58 -10 3 -5 30 -10 58 -10 30 0 60 -7 71 -15 11 -8 37 -15 59 -15 21
0 47 -5 58 -11 19 -10 65 -20 169 -38 25 -4 55 -13 67 -19 12 -7 33 -12 47
-12 14 0 28 -4 31 -10 3 -5 21 -10 38 -10 18 -1 43 -7 57 -15 14 -8 37 -14 52
-15 15 0 30 -4 33 -10 3 -5 18 -10 33 -10 l27 0 -23 18 c-23 18 -51 33 -122
66 -19 9 -42 20 -50 25 -8 5 -28 14 -45 21 -16 7 -37 16 -45 21 -8 5 -22 12
-30 15 -8 3 -28 12 -45 19 -16 7 -43 18 -60 25 -16 7 -42 19 -57 26 -14 8 -35
14 -46 14 -12 0 -24 5 -27 10 -3 6 -16 10 -29 10 -12 0 -31 7 -42 15 -10 8
-31 15 -46 15 -15 0 -30 5 -33 10 -3 6 -19 10 -34 10 -15 0 -36 7 -47 15 -10
8 -36 15 -56 15 -20 0 -40 5 -43 10 -3 6 -23 10 -44 10 -20 0 -46 7 -57 15
-10 8 -37 15 -59 15 -78 1 -75 -13 -75 348 l0 321 38 3 37 3 0 77 c-1 47 -6
83 -13 90 -7 7 -12 36 -12 66 l0 54 -147 150 c-138 141 -233 218 -266 218 -8
0 -17 7 -21 15 -3 8 -13 15 -23 16 -10 0 -31 9 -48 20 -16 10 -37 21 -45 25
-8 3 -22 9 -30 14 -16 10 -65 34 -90 44 -8 3 -28 15 -45 25 -40 26 -52 25
-104 -4z m129 -435 c32 -26 35 -33 35 -84 0 -47 -4 -59 -28 -84 -48 -50 -103
-48 -159 6 -24 22 -28 34 -28 78 0 48 3 55 37 83 49 41 95 41 143 1z m204
-536 c14 -5 16 -33 16 -210 l0 -204 -287 2 -288 3 -3 195 c-1 107 0 200 2 207
4 10 65 13 275 13 148 0 276 -3 285 -6z"/>
<path d="M12026 12471 c-40 -40 -57 -65 -53 -75 7 -17 37 -22 37 -7 0 5 29 23
64 40 68 35 102 75 76 91 -35 22 -65 10 -124 -49z"/>
<path d="M10616 12421 c-3 -5 5 -16 19 -25 23 -15 25 -23 25 -91 0 -40 -4 -77
-10 -80 -13 -8 -13 -42 0 -50 9 -6 19 11 35 59 5 18 7 17 21 -10 17 -31 20
-46 30 -159 3 -38 10 -74 15 -79 5 -6 9 -33 9 -60 0 -28 7 -64 15 -80 8 -15
15 -49 15 -75 0 -26 5 -52 11 -58 5 -5 7 -22 4 -35 -6 -24 -10 -25 -48 -21
-23 3 -50 10 -59 14 -26 14 -58 11 -58 -5 0 -13 39 -25 89 -27 47 -1 85 -32
94 -75 4 -21 10 -50 13 -64 4 -18 -1 -32 -20 -49 -14 -14 -26 -28 -26 -33 0
-4 63 -8 140 -8 77 0 140 3 140 6 0 3 -13 17 -30 31 -20 17 -30 34 -30 53 0
16 -4 32 -10 35 -5 3 -10 30 -10 58 0 29 -7 65 -15 81 -8 15 -15 54 -15 87 0
32 -4 61 -10 64 -5 3 -10 27 -10 52 0 25 -6 59 -14 76 -8 18 -17 59 -20 92 -6
81 -24 185 -35 210 -6 11 -11 48 -14 83 -2 34 -8 66 -13 71 -12 13 -221 23
-228 12z"/>
<path d="M10035 12413 c-56 -7 -62 -12 -36 -32 25 -19 25 -15 5 -151 -3 -25
-13 -53 -21 -62 -11 -12 -13 -28 -9 -52 5 -26 3 -37 -9 -43 -9 -5 -18 -27 -21
-49 -3 -21 -9 -48 -14 -59 -5 -11 -11 -48 -13 -81 -3 -43 -11 -68 -24 -81 -19
-19 -20 -19 -36 21 -9 23 -17 47 -17 53 0 13 -23 69 -46 115 -8 14 -14 38 -14
51 0 14 -4 29 -10 32 -5 3 -10 16 -10 28 0 12 -7 31 -15 41 -8 11 -15 29 -15
41 0 12 -4 25 -10 31 -5 5 -11 37 -12 71 -2 47 1 65 15 80 9 11 14 23 10 26
-10 10 -64 8 -103 -3 -19 -6 -71 -13 -115 -15 -73 -3 -102 -15 -58 -24 10 -1
26 -10 36 -19 16 -14 17 -49 17 -469 l0 -453 -25 -10 c-14 -5 -25 -16 -25 -24
0 -12 6 -13 32 -5 18 5 57 9 85 9 29 0 53 5 53 10 0 6 -10 10 -22 10 -54 1
-53 -10 -55 397 -1 301 1 373 10 351 7 -14 20 -34 29 -45 9 -10 18 -38 21 -63
4 -42 19 -93 38 -132 5 -10 9 -25 9 -34 0 -9 6 -28 14 -42 17 -34 36 -93 36
-114 0 -9 7 -21 15 -28 8 -7 15 -23 15 -35 0 -20 12 -56 40 -120 4 -11 11 -28
14 -38 3 -9 12 -20 21 -23 26 -10 45 15 45 60 0 23 4 46 9 51 10 11 30 95 38
165 3 25 12 54 19 65 8 11 14 32 14 47 0 15 5 30 10 33 6 3 10 23 10 43 1 20
8 55 16 77 8 22 22 65 30 95 8 30 18 62 21 70 15 36 21 -64 22 -373 l1 -328
-26 -35 -26 -34 141 0 c77 0 141 3 141 6 0 3 -13 17 -30 31 l-30 25 0 447 0
448 23 20 c12 11 29 23 37 26 17 6 -198 6 -245 0z"/>
<path d="M11207 12393 c-17 -17 5 -133 25 -133 4 0 8 17 8 38 0 64 6 67 127
64 169 -4 189 -21 138 -118 -14 -26 -25 -52 -25 -59 0 -7 -11 -33 -25 -59 -14
-26 -25 -53 -25 -61 0 -7 -8 -28 -17 -47 -30 -60 -33 -68 -33 -82 0 -7 -7 -19
-15 -26 -8 -7 -15 -21 -15 -31 0 -11 -4 -27 -9 -37 -4 -9 -16 -35 -26 -57 -9
-22 -21 -48 -26 -57 -5 -10 -9 -26 -9 -37 0 -10 -7 -24 -15 -31 -8 -7 -15 -18
-15 -26 0 -12 -21 -66 -41 -106 -5 -10 -9 -26 -9 -37 0 -10 -7 -24 -15 -31
-23 -19 -19 -57 6 -65 22 -7 279 -25 403 -28 88 -2 97 8 72 87 -20 63 -31 65
-32 4 0 -23 -6 -43 -15 -49 -19 -12 -211 -12 -243 1 -36 13 -35 29 9 135 7 17
18 44 25 60 21 50 42 99 51 117 5 10 9 26 9 36 0 10 5 23 12 30 12 12 35 69
45 110 3 12 9 22 14 22 5 0 9 9 9 19 0 11 6 32 14 48 8 15 20 42 26 58 33 81
83 199 109 253 27 56 12 66 -120 74 -63 3 -141 11 -174 17 -67 12 -188 15
-198 4z"/>
<path d="M11808 12345 c-3 -3 8 -20 25 -38 l30 -32 -7 -315 c-4 -173 -11 -372
-14 -441 -7 -124 -7 -126 -37 -152 -20 -18 -25 -27 -15 -28 8 0 58 -5 110 -10
52 -5 124 -12 160 -15 l65 -6 -27 21 c-14 12 -31 21 -36 21 -6 0 -19 16 -31
36 -17 29 -21 52 -21 128 0 50 4 96 9 102 6 5 12 148 15 319 6 306 6 310 28
327 13 10 32 18 44 18 30 0 36 11 16 26 -10 8 -46 13 -93 14 -42 0 -96 7 -119
15 -43 15 -92 20 -102 10z"/>
<path d="M8987 12322 c-14 -3 -7 -11 27 -32 47 -30 86 -90 86 -133 0 -12 5
-28 11 -34 20 -20 23 -124 5 -167 -9 -21 -16 -51 -16 -66 0 -15 -13 -51 -28
-81 -22 -41 -40 -60 -75 -79 -48 -26 -59 -40 -32 -40 44 0 105 -61 105 -105 0
-7 7 -18 15 -25 8 -7 15 -25 15 -41 0 -15 5 -31 10 -34 6 -3 10 -13 10 -22 0
-21 29 -82 57 -120 34 -46 125 -83 206 -83 55 0 66 24 17 35 -37 8 -99 91
-100 134 0 9 -7 25 -15 35 -8 11 -15 30 -15 41 0 70 -115 205 -175 205 -8 0
-15 5 -15 10 0 6 7 10 15 10 9 0 18 7 21 15 3 8 16 17 27 21 25 8 64 47 78 78
5 11 13 28 17 36 29 50 32 69 32 173 0 106 -2 117 -26 153 -33 50 -83 93 -109
94 -12 0 -25 4 -30 9 -11 10 -91 19 -118 13z"/>
<path d="M8900 12310 c-8 -5 -41 -10 -73 -10 -32 0 -74 -7 -94 -15 -19 -8 -49
-15 -66 -15 l-31 0 27 -28 c24 -25 27 -38 39 -167 7 -78 13 -275 13 -445 l0
-306 -35 -32 c-25 -23 -30 -31 -18 -32 9 0 20 5 23 10 3 6 30 10 59 10 30 0
73 7 96 15 23 8 58 15 76 15 42 0 43 13 4 37 l-30 18 0 210 c0 115 -5 287 -11
380 -6 94 -11 186 -11 205 -1 48 24 109 56 137 22 19 24 23 9 23 -10 0 -25 -5
-33 -10z"/>
<path d="M12202 12292 c-9 -7 -7 -13 9 -28 12 -10 29 -35 38 -54 l16 -35 3 49
c2 27 1 55 -2 62 -6 15 -43 18 -64 6z"/>
<path d="M12364 12257 c60 -38 66 -52 66 -155 1 -60 6 -108 15 -127 l13 -30 1
50 c1 59 10 51 36 -30 10 -33 22 -64 27 -69 4 -6 8 -26 8 -46 0 -20 5 -41 10
-46 6 -6 15 -35 21 -65 5 -30 13 -67 16 -84 3 -16 12 -39 19 -50 8 -11 14 -36
14 -57 0 -20 5 -40 10 -43 6 -3 10 -19 10 -34 0 -15 7 -36 15 -47 8 -10 15
-33 15 -50 0 -41 27 -94 48 -94 20 0 42 43 42 80 0 14 6 34 14 45 7 11 16 34
19 50 11 61 28 120 38 130 5 5 9 20 9 35 0 26 17 80 37 115 15 28 28 145 15
145 -12 0 -42 -89 -42 -124 0 -14 -4 -28 -10 -31 -5 -3 -19 -37 -31 -75 -13
-45 -25 -67 -33 -64 -16 6 -36 62 -36 105 0 19 -7 43 -15 53 -8 11 -15 37 -15
57 0 21 -4 41 -10 44 -5 3 -10 21 -10 39 0 17 -5 37 -12 44 -11 11 -19 46 -40
174 -11 61 -10 69 7 88 10 11 16 21 14 23 -21 14 -114 37 -151 37 -26 0 -50 5
-53 10 -3 6 -27 10 -53 9 -40 0 -44 -2 -28 -12z"/>
<path d="M8195 12193 c-11 -3 -24 -9 -29 -14 -6 -5 -31 -9 -57 -9 -55 0 -71
-15 -35 -32 30 -13 28 -6 31 -91 1 -46 -2 -71 -12 -78 -7 -6 -13 -31 -13 -54
0 -23 -7 -59 -15 -78 -8 -20 -15 -54 -15 -75 0 -21 -5 -43 -11 -49 -7 -7 -12
-39 -13 -72 -1 -34 -7 -66 -14 -73 -7 -7 -12 -25 -12 -41 0 -22 4 -28 16 -23
9 3 18 6 20 6 2 0 4 21 4 48 1 26 7 58 15 72 8 14 14 46 15 72 0 26 5 50 10
53 6 3 10 27 10 53 1 26 7 58 15 72 8 14 14 42 15 62 0 20 3 44 7 53 9 26 44
-47 54 -115 18 -125 28 -173 38 -183 6 -6 11 -30 11 -53 0 -24 4 -45 9 -48 10
-7 27 -128 23 -170 -1 -16 1 -32 5 -35 20 -15 43 -63 43 -92 0 -17 -9 -43 -20
-59 l-20 -28 36 -6 c23 -5 45 -2 66 8 17 9 50 16 73 16 63 0 105 11 105 26 0
8 -6 14 -13 14 -20 0 -57 43 -57 66 0 11 -5 25 -12 32 -7 7 -16 38 -19 70 -12
89 -27 163 -37 175 -6 7 -12 32 -15 57 -11 85 -23 145 -35 167 -7 12 -12 40
-12 62 0 23 -4 49 -9 59 -6 9 -13 38 -16 65 -3 26 -10 47 -16 47 -5 0 -9 22
-9 49 0 72 -29 92 -105 74z"/>
<path d="M12890 12164 c0 -3 11 -15 25 -26 26 -20 34 -65 16 -83 -13 -13 -33
-91 -35 -134 -1 -45 18 -50 32 -9 8 25 10 -45 8 -272 -1 -168 -5 -316 -9 -330
-3 -14 -9 -42 -12 -63 -5 -29 -12 -40 -33 -48 l-27 -11 35 -18 c19 -11 54 -19
77 -20 23 0 45 -4 48 -10 3 -5 22 -10 41 -10 19 0 49 -7 65 -16 41 -21 48 -10
17 24 -38 42 -51 84 -43 144 3 29 10 202 14 383 8 359 13 393 61 421 38 23 29
34 -25 34 -24 0 -47 5 -50 10 -3 6 -25 10 -49 10 -23 0 -51 7 -62 15 -18 14
-94 21 -94 9z"/>
<path d="M10616 12138 c-3 -7 -7 -26 -10 -43 -11 -64 -29 -141 -37 -160 -4
-11 -10 -36 -12 -55 -3 -19 -10 -49 -17 -66 -7 -17 -10 -39 -6 -49 6 -17 9
-15 25 11 10 17 21 46 24 65 15 91 25 129 34 141 15 19 26 155 13 163 -5 3
-12 0 -14 -7z"/>
<path d="M12434 11874 c-16 -37 -31 -250 -33 -487 -1 -63 -3 -68 -29 -85 -42
-25 -29 -42 29 -42 28 0 59 -5 71 -11 32 -17 31 -4 -2 35 l-32 36 2 252 c0
139 5 271 10 293 12 53 4 57 -16 9z"/>
<path d="M10517 11723 c-4 -3 -7 -22 -7 -42 -1 -20 -7 -47 -15 -61 -8 -14 -14
-37 -15 -51 0 -39 -28 -90 -69 -126 l-36 -33 89 0 c83 0 88 1 75 18 -8 9 -20
21 -26 25 -17 11 -16 86 2 117 8 14 14 37 15 52 0 15 7 33 15 42 11 11 13 21
5 40 -9 26 -21 32 -33 19z"/>
<path d="M12118 11680 l-27 -30 25 -25 c13 -13 24 -31 24 -39 0 -8 5 -18 10
-21 6 -4 10 22 10 69 0 42 -3 76 -8 76 -4 0 -19 -14 -34 -30z"/>
<path d="M7989 11449 c-6 -12 -13 -47 -15 -77 -2 -31 -8 -60 -14 -66 -5 -5
-10 -29 -10 -52 0 -25 -6 -47 -15 -54 -8 -7 -15 -21 -15 -31 0 -10 -9 -20 -19
-24 -22 -7 -46 -33 -39 -41 3 -3 23 2 43 10 21 9 52 16 71 16 41 0 51 15 28
42 -16 16 -18 33 -16 95 2 41 8 82 14 92 15 25 97 51 162 51 32 0 55 4 51 9
-3 5 -46 7 -100 4 l-95 -6 0 27 c0 31 -15 34 -31 5z"/>
<path d="M12232 11371 c-14 -25 -33 -43 -48 -47 -31 -8 -26 -26 10 -35 52 -14
71 10 64 86 l-3 38 -23 -42z"/>
<path d="M3565 10856 c-11 -9 -27 -16 -35 -16 -52 -1 -201 -125 -235 -196 -8
-18 -20 -36 -25 -39 -6 -3 -10 -17 -10 -30 0 -13 -4 -27 -10 -30 -5 -3 -10
-19 -10 -34 0 -15 -7 -36 -15 -47 -21 -27 -21 -271 0 -298 8 -11 15 -33 15
-48 0 -16 4 -36 9 -46 5 -9 12 -24 15 -32 40 -102 159 -239 426 -494 61 -58
152 -166 173 -204 48 -90 67 -133 67 -151 0 -11 5 -23 10 -26 6 -3 10 -52 10
-111 0 -63 -4 -104 -10 -104 -5 0 -10 -11 -10 -25 0 -37 -101 -183 -128 -184
-7 -1 -23 -7 -35 -14 -12 -8 -51 -15 -87 -16 -56 -2 -73 2 -125 29 -81 43
-165 131 -165 174 0 7 -7 19 -15 26 -9 7 -15 29 -15 54 0 23 -5 47 -12 54 -7
7 -12 24 -13 40 0 20 -6 28 -22 30 -21 3 -22 -1 -27 -110 -3 -62 -8 -170 -12
-240 -3 -75 -2 -128 3 -128 19 0 53 47 53 74 0 34 16 66 34 66 8 0 36 -18 62
-40 27 -23 63 -47 79 -54 17 -8 46 -21 67 -30 50 -22 295 -23 324 -1 10 8 29
15 41 15 12 0 25 5 28 10 3 6 12 10 19 10 8 0 41 18 75 41 60 40 112 103 155
187 10 20 25 49 32 64 8 14 14 38 14 51 0 14 5 29 10 32 6 4 10 63 10 145 0
82 -4 141 -10 145 -5 3 -10 19 -10 34 0 16 -7 34 -15 41 -8 7 -15 20 -16 29 0
9 -9 30 -20 46 -10 17 -23 40 -28 52 -6 12 -25 39 -44 60 -18 21 -41 49 -50
62 -9 13 -107 117 -219 230 -188 192 -278 303 -278 345 0 7 -6 19 -14 25 -24
20 -47 244 -27 264 6 6 11 24 11 39 0 51 53 132 114 176 42 30 49 32 134 32
79 0 94 -3 126 -25 20 -14 40 -25 45 -25 12 0 91 -82 102 -105 5 -11 18 -33
28 -50 11 -16 20 -44 20 -61 1 -16 8 -39 16 -50 8 -10 15 -29 15 -40 0 -25 24
-49 40 -39 5 3 10 32 10 63 0 31 5 118 11 194 12 144 8 188 -16 188 -19 0 -26
-13 -39 -74 -10 -47 -14 -51 -42 -54 -26 -3 -35 3 -55 33 -23 33 -73 63 -179
105 -53 21 -299 26 -325 6z"/>
<path d="M17610 10859 c-85 -4 -237 -10 -337 -14 -101 -4 -183 -11 -183 -15 0
-19 40 -40 78 -40 56 0 85 -39 104 -140 19 -110 19 -1671 -1 -1780 -7 -41 -16
-77 -20 -80 -3 -3 -11 -14 -17 -25 -8 -15 -28 -23 -75 -30 -53 -9 -64 -14 -64
-30 0 -18 9 -21 90 -26 50 -4 244 -7 432 -8 214 -1 369 -5 412 -13 103 -18
104 -17 99 154 -4 134 -12 169 -37 154 -6 -4 -11 -32 -11 -62 0 -30 -6 -64
-12 -77 -25 -44 -72 -87 -95 -87 -13 0 -35 -8 -50 -17 -24 -16 -28 -16 -73 0
-26 9 -57 17 -68 17 -12 0 -45 24 -76 53 -52 51 -54 56 -61 118 -3 35 -5 453
-3 929 3 816 4 867 21 898 24 43 73 78 120 86 29 5 37 11 35 24 -4 20 -7 21
-208 11z"/>
<path d="M4680 10691 c0 -17 6 -21 30 -21 48 0 107 -36 113 -70 8 -37 -3 -159
-14 -166 -5 -3 -9 -22 -9 -42 0 -21 -6 -46 -14 -57 -7 -11 -16 -40 -19 -65
-15 -111 -20 -136 -33 -155 -8 -11 -14 -41 -14 -67 0 -26 -4 -50 -10 -53 -5
-3 -10 -21 -10 -38 -1 -18 -7 -43 -15 -57 -8 -14 -15 -45 -15 -70 0 -25 -7
-54 -15 -64 -8 -11 -15 -37 -15 -57 0 -21 -4 -41 -10 -44 -5 -3 -10 -25 -10
-48 0 -23 -7 -51 -15 -61 -8 -11 -15 -37 -15 -57 0 -21 -4 -41 -10 -44 -5 -3
-10 -27 -10 -53 0 -26 -7 -56 -15 -66 -8 -11 -15 -37 -15 -57 0 -21 -4 -41
-10 -44 -5 -3 -10 -25 -10 -48 -1 -23 -7 -53 -15 -67 -8 -14 -14 -37 -15 -52
0 -39 -48 -124 -86 -153 -22 -17 -45 -25 -73 -25 -34 0 -41 -3 -41 -20 0 -19
7 -20 196 -20 181 0 195 1 192 18 -2 11 -14 18 -38 20 -19 2 -45 13 -57 24
-20 19 -23 31 -23 108 0 60 4 92 15 106 8 10 15 38 15 61 0 44 25 99 49 108
20 8 262 -14 283 -26 10 -5 29 -9 42 -9 13 0 37 -7 52 -15 16 -8 37 -15 46
-15 26 0 48 -40 48 -87 0 -23 5 -45 10 -48 16 -10 12 -99 -7 -136 -19 -38 -46
-62 -82 -69 -13 -3 -26 -10 -28 -17 -5 -14 97 -22 147 -11 19 4 253 8 520 9
267 0 530 5 585 10 55 5 127 12 160 15 33 3 64 10 69 15 6 5 22 9 37 9 15 0
32 7 39 15 7 8 21 15 31 15 11 0 19 4 19 8 0 5 18 19 40 31 23 13 53 41 67 64
14 23 32 48 40 55 7 8 11 17 8 22 -3 4 2 13 10 20 8 7 15 22 15 34 1 11 7 32
15 46 20 35 20 176 0 214 -8 15 -15 36 -16 45 0 9 -9 30 -20 46 -10 17 -23 39
-28 50 -18 40 -90 97 -173 139 l-85 43 44 26 c24 15 53 27 63 27 11 0 20 3 20
8 0 4 23 23 50 42 27 19 50 39 50 43 0 5 11 23 25 41 14 18 25 38 25 43 0 6 7
16 15 23 8 7 15 22 15 35 0 12 7 36 16 54 20 40 17 212 -3 219 -7 2 -13 15
-13 28 0 13 -11 42 -25 64 -14 22 -25 42 -25 45 0 11 -102 106 -124 116 -11 5
-28 13 -36 18 -28 17 -88 41 -103 41 -9 0 -19 5 -22 10 -3 6 -37 10 -75 10
-38 0 -71 4 -74 9 -8 12 -640 25 -661 13 -16 -8 -15 -11 6 -26 13 -9 36 -16
51 -16 27 0 68 -43 68 -72 0 -8 7 -23 15 -34 22 -29 22 -1489 0 -1518 -8 -11
-15 -27 -15 -35 -1 -9 -10 -27 -21 -40 -17 -21 -30 -24 -112 -29 -90 -4 -93
-4 -126 23 -54 46 -81 98 -81 154 0 27 -4 53 -10 56 -5 3 -10 30 -10 59 0 30
-6 60 -15 72 -8 11 -14 42 -15 76 0 31 -4 60 -10 63 -5 3 -10 32 -10 63 -1 31
-7 68 -15 82 -8 14 -14 50 -15 80 0 31 -5 61 -10 66 -6 6 -12 39 -14 73 -2 34
-8 67 -14 73 -7 7 -12 36 -12 66 0 29 -4 61 -10 71 -5 10 -12 47 -15 82 -4 35
-10 68 -16 74 -5 5 -9 32 -9 60 0 30 -6 59 -15 71 -9 12 -14 42 -15 81 0 34
-4 65 -10 68 -5 3 -10 29 -10 57 0 27 -7 64 -15 81 -8 18 -15 52 -17 77 l-3
45 -100 7 c-55 4 -160 10 -232 14 -131 6 -133 6 -133 -15z m1663 -67 c44 -22
147 -124 147 -146 0 -9 5 -20 10 -23 6 -3 10 -23 10 -43 0 -20 7 -50 15 -66 9
-17 15 -56 15 -101 0 -45 -6 -84 -15 -101 -8 -16 -15 -46 -15 -67 0 -20 -4
-45 -9 -55 -5 -9 -17 -35 -27 -57 -11 -22 -23 -44 -27 -50 -5 -5 -16 -24 -26
-41 -10 -17 -35 -38 -54 -47 -19 -10 -37 -21 -39 -27 -2 -5 -52 -11 -113 -12
l-110 -3 -3 365 c-2 397 -2 400 56 463 23 24 33 27 89 27 39 0 77 -6 96 -16z
m-1443 -315 c0 -20 7 -53 15 -72 8 -20 15 -59 15 -86 0 -27 5 -53 10 -56 6 -3
10 -32 10 -64 0 -35 6 -65 15 -77 8 -11 14 -42 15 -76 0 -31 5 -60 10 -63 6
-3 10 -32 10 -63 0 -33 6 -66 14 -78 8 -11 16 -46 19 -79 12 -127 26 -217 36
-229 7 -8 10 -27 9 -44 -2 -29 -3 -29 -43 -24 -22 2 -47 11 -56 18 -8 8 -33
14 -55 14 -22 0 -45 5 -51 11 -6 6 -57 13 -115 14 -56 2 -106 4 -110 4 -12 1
-9 86 3 98 7 7 13 30 15 52 1 21 7 48 13 59 6 12 11 36 11 55 0 19 7 48 15 63
8 16 15 46 15 66 0 20 5 40 10 43 6 3 10 24 10 46 0 22 5 50 12 62 11 21 16
41 36 167 5 28 14 56 20 62 7 7 12 31 12 54 0 24 5 46 10 49 6 3 10 28 10 55
0 30 6 54 15 64 8 8 15 21 15 28 1 30 29 -40 30 -73z m1375 -579 c3 -5 23 -10
43 -10 20 0 48 -8 62 -18 38 -26 80 -71 80 -86 0 -8 7 -19 15 -26 8 -7 15 -25
15 -41 0 -15 5 -31 10 -34 6 -4 10 -73 10 -175 0 -102 -4 -171 -10 -175 -5 -3
-10 -17 -10 -31 0 -13 -11 -42 -25 -64 -14 -22 -25 -43 -25 -48 0 -14 -55 -61
-95 -82 -27 -14 -59 -20 -100 -20 -54 0 -64 3 -87 28 -56 58 -58 76 -58 430 0
383 -6 362 101 362 37 0 71 -4 74 -10z"/>
<path d="M15915 10700 c-3 -5 -19 -10 -35 -10 -32 0 -132 -44 -151 -66 -6 -8
-17 -14 -23 -14 -13 0 -56 -41 -56 -54 0 -4 -9 -17 -20 -29 -34 -36 -80 -138
-80 -177 0 -20 -5 -41 -11 -47 -16 -16 2 -227 22 -247 5 -6 9 -18 9 -27 0 -9
7 -22 15 -29 8 -7 15 -21 15 -31 0 -11 4 -19 10 -19 5 0 16 -15 25 -33 8 -18
119 -135 245 -261 139 -138 230 -236 230 -248 0 -10 7 -21 15 -24 8 -4 15 -16
15 -28 0 -12 6 -28 13 -34 20 -21 16 -238 -5 -282 -20 -42 -91 -112 -137 -135
-55 -28 -134 -9 -222 52 -49 34 -119 128 -119 160 0 11 -4 23 -9 28 -6 6 -11
30 -13 55 -2 37 -6 45 -23 45 -18 0 -21 -9 -27 -110 -4 -60 -11 -135 -15 -165
-8 -55 -8 -55 -45 -58 -34 -3 -44 2 -90 46 -55 53 -58 61 -76 219 -4 34 -13
68 -20 75 -7 7 -12 38 -12 73 0 34 -4 65 -10 71 -5 5 -12 36 -15 67 -2 32 -9
66 -15 77 -5 10 -10 40 -10 67 -1 26 -7 59 -15 73 -8 14 -14 48 -15 77 0 28
-4 55 -10 58 -5 3 -10 32 -10 63 -1 31 -7 68 -15 82 -8 14 -14 48 -15 77 0 28
-4 55 -10 58 -5 3 -10 32 -10 64 0 35 -6 65 -15 77 -8 11 -14 42 -15 76 0 31
-4 60 -10 63 -5 3 -10 30 -10 59 0 30 -6 60 -15 72 -9 12 -14 42 -15 80 0 88
-11 98 -96 90 -38 -3 -136 -9 -217 -12 -154 -7 -178 -16 -98 -40 69 -20 81
-37 81 -115 0 -37 -4 -71 -10 -74 -5 -3 -10 -23 -10 -44 0 -20 -7 -46 -15 -57
-8 -10 -15 -33 -15 -50 0 -17 -7 -49 -16 -69 -8 -21 -13 -46 -11 -56 3 -10 -1
-26 -9 -36 -7 -10 -14 -33 -14 -51 0 -18 -5 -43 -12 -55 -6 -12 -15 -42 -19
-67 -17 -99 -26 -136 -37 -157 -7 -12 -12 -37 -12 -57 0 -19 -4 -38 -10 -41
-5 -3 -10 -23 -10 -44 0 -20 -7 -46 -15 -57 -8 -10 -15 -38 -15 -61 0 -23 -4
-45 -10 -48 -5 -3 -10 -23 -10 -44 0 -20 -7 -46 -15 -57 -8 -10 -15 -38 -15
-61 0 -23 -4 -45 -10 -48 -5 -3 -12 -28 -16 -56 -4 -27 -11 -52 -15 -55 -5 -3
-9 -19 -9 -36 0 -32 -41 -130 -66 -159 -8 -9 -41 -24 -74 -35 -33 -10 -60 -22
-60 -26 0 -5 57 -8 128 -8 70 0 147 -5 171 -11 54 -12 79 -6 61 16 -7 8 -20
15 -29 15 -9 1 -27 10 -40 21 -23 19 -24 26 -23 118 1 65 7 108 17 127 8 16
15 43 15 59 1 58 15 65 136 65 72 0 126 -5 159 -16 90 -28 111 -34 131 -34 11
0 33 -13 50 -28 30 -27 32 -34 38 -123 8 -100 2 -162 -18 -178 -6 -5 -29 -11
-51 -13 -27 -2 -41 -8 -43 -19 -2 -14 16 -17 125 -22 70 -4 221 -7 336 -7 175
0 207 2 207 15 0 8 8 30 17 50 22 46 49 45 95 -4 21 -21 52 -44 70 -50 18 -7
41 -17 51 -22 10 -5 80 -10 157 -10 137 -1 195 9 231 38 8 7 20 13 26 13 5 0
33 24 61 53 53 57 112 161 112 199 1 13 7 34 15 48 20 35 20 170 0 196 -8 10
-15 33 -15 51 0 17 -4 35 -10 38 -5 3 -10 13 -10 20 0 18 -70 133 -107 177
-29 34 -44 50 -256 257 -70 68 -127 129 -127 136 0 6 -11 22 -25 35 -14 13
-25 31 -25 41 0 10 -4 20 -9 24 -29 17 -41 71 -41 187 0 72 4 118 10 118 6 0
10 9 10 20 0 11 27 46 61 80 l60 60 85 0 c76 0 89 -3 118 -25 18 -14 37 -25
43 -25 19 0 79 -73 98 -120 4 -8 11 -23 16 -32 5 -10 9 -28 9 -42 0 -13 3 -38
6 -55 6 -27 11 -32 33 -29 l26 3 5 170 c3 94 3 178 1 188 -6 31 -41 -10 -41
-48 0 -55 -43 -54 -110 1 -37 31 -86 53 -138 61 -18 3 -35 9 -38 14 -7 12
-161 11 -169 -1z m-1075 -353 c0 -13 4 -27 9 -32 5 -6 12 -35 14 -65 10 -100
27 -194 37 -204 5 -5 10 -31 10 -57 0 -26 7 -60 15 -75 8 -16 15 -50 15 -76 0
-26 5 -50 10 -53 6 -3 10 -32 10 -63 1 -31 7 -68 15 -82 8 -14 14 -48 15 -77
0 -28 5 -55 10 -58 6 -3 10 -32 10 -63 0 -36 6 -66 16 -80 16 -23 11 -62 -7
-62 -6 0 -19 5 -30 10 -31 17 -245 59 -340 67 l-56 5 5 51 c2 29 8 56 13 62 5
5 9 25 9 45 0 19 7 48 15 64 8 15 15 45 15 66 0 21 6 43 14 49 8 7 17 33 20
59 4 26 9 67 12 92 4 25 11 51 17 58 6 8 14 35 18 60 16 97 26 138 37 159 7
12 12 39 12 60 1 51 16 117 29 121 6 2 11 12 11 23 0 10 5 19 10 19 6 0 10
-10 10 -23z"/>
<path d="M16477 10703 c-16 -15 -5 -32 26 -38 17 -4 47 -21 65 -38 l32 -31 0
-816 0 -816 -34 -37 c-22 -24 -43 -37 -59 -37 -36 0 -57 -10 -57 -26 0 -12 53
-14 316 -14 295 0 315 1 312 18 -2 12 -15 18 -44 20 -33 2 -49 11 -73 37 l-31
34 0 819 0 819 34 39 c28 33 40 39 72 39 29 0 40 4 42 18 3 16 -16 17 -296 17
-164 0 -302 -3 -305 -7z"/>
<path d="M7460 10670 c-8 -5 -43 -10 -77 -10 -34 0 -65 -4 -68 -10 -3 -5 -15
-10 -25 -10 -10 0 -25 -7 -34 -15 -8 -8 -19 -15 -24 -15 -25 0 -96 -46 -141
-91 -48 -47 -91 -116 -91 -144 0 -7 -7 -18 -15 -25 -8 -7 -15 -27 -15 -46 0
-18 -4 -36 -10 -39 -5 -3 -10 -40 -10 -81 0 -42 -7 -97 -16 -124 -13 -41 -15
-94 -12 -338 2 -199 7 -293 15 -303 6 -8 14 -43 17 -79 8 -104 17 -148 32
-161 8 -6 14 -20 14 -30 0 -11 5 -19 10 -19 6 0 10 -8 10 -17 0 -23 139 -163
162 -163 10 0 18 -4 18 -8 0 -8 13 -14 110 -52 23 -9 88 -15 186 -18 127 -2
153 0 164 13 7 8 23 15 36 15 14 0 32 4 42 9 9 5 24 12 32 16 64 26 182 139
211 202 10 23 23 45 29 48 5 3 10 14 10 24 0 10 7 32 16 50 10 19 14 44 11 61
-4 16 0 35 8 46 12 16 14 87 15 400 0 247 -4 384 -10 390 -6 6 -12 41 -14 78
-2 37 -9 73 -15 79 -6 6 -11 18 -11 26 0 9 -12 39 -26 68 -28 55 -151 183
-177 183 -8 0 -20 7 -27 15 -7 8 -19 15 -27 15 -8 0 -21 7 -29 15 -9 8 -26 15
-39 15 -13 0 -27 5 -30 10 -3 6 -33 10 -65 10 -32 0 -62 5 -65 10 -8 13 -55
13 -75 0z m86 -51 c24 -6 44 -15 44 -19 0 -5 10 -10 21 -12 13 -2 30 -18 40
-37 10 -19 23 -39 29 -45 5 -5 10 -19 10 -30 0 -12 7 -30 15 -40 8 -11 15 -39
15 -62 0 -24 5 -46 10 -49 6 -3 10 -50 10 -103 1 -53 7 -126 15 -162 18 -80
21 -526 4 -580 -6 -19 -15 -84 -20 -145 -16 -192 -20 -224 -35 -236 -8 -6 -14
-23 -14 -37 0 -19 -17 -44 -57 -84 l-57 -58 -81 0 -81 0 -40 43 c-50 54 -74
97 -74 135 0 17 -4 34 -10 37 -5 3 -10 24 -10 45 0 22 -6 57 -14 77 -13 32
-27 285 -26 453 1 269 13 540 26 573 7 20 14 55 14 77 0 21 5 42 10 45 6 3 10
19 10 35 0 64 86 164 154 181 44 10 43 10 92 -2z"/>
<path d="M8084 10646 c-9 -25 5 -36 45 -36 29 0 44 -7 69 -33 18 -18 32 -43
32 -54 0 -12 5 -25 10 -28 7 -4 10 -255 10 -720 0 -465 -3 -716 -10 -720 -5
-3 -10 -17 -10 -30 0 -37 -62 -85 -111 -85 -33 0 -40 -3 -37 -17 3 -17 27 -18
316 -21 280 -2 313 -1 319 14 8 20 -13 34 -54 34 -25 0 -39 9 -67 43 l-35 43
-1 259 c-1 142 2 261 7 265 4 4 44 5 87 3 l79 -6 54 -52 c29 -29 53 -60 53
-68 0 -8 7 -20 15 -27 8 -7 15 -21 15 -31 0 -10 5 -21 10 -24 6 -3 10 -16 10
-29 0 -12 7 -31 15 -42 8 -10 15 -33 15 -51 0 -17 5 -35 10 -38 6 -3 10 -15
10 -25 0 -18 22 -78 41 -110 5 -8 12 -22 15 -30 25 -61 42 -87 98 -144 59 -60
150 -116 187 -116 8 0 20 -5 26 -11 17 -17 208 -25 217 -10 12 19 -14 41 -49
41 -26 0 -43 11 -91 60 -32 33 -59 65 -59 70 0 5 -6 15 -12 22 -7 6 -13 23
-13 37 0 15 -7 35 -15 45 -8 11 -15 30 -15 42 0 13 -4 26 -10 29 -5 3 -10 21
-10 39 0 19 -7 39 -15 46 -8 7 -15 23 -15 36 0 22 -6 38 -31 84 -5 8 -18 34
-29 56 -26 55 -111 148 -155 168 -19 9 -37 21 -40 26 -3 6 -13 10 -21 10 -9 0
-22 6 -29 14 -17 16 -6 29 35 41 57 16 96 40 156 100 35 35 64 70 64 78 0 8 7
20 15 27 8 7 15 21 15 31 0 11 5 19 10 19 6 0 10 11 10 24 0 13 7 29 15 36 9
7 15 29 15 51 0 21 5 41 10 44 6 3 10 50 10 105 0 55 -4 102 -10 105 -5 3 -10
23 -10 43 0 20 -7 46 -15 56 -8 11 -15 26 -15 34 0 9 -10 29 -23 46 -12 17
-29 44 -37 59 -21 41 -182 137 -230 137 -14 0 -31 5 -37 11 -15 15 -93 20
-398 24 -148 2 -300 6 -338 9 -54 5 -69 3 -73 -8z m681 -46 c3 -5 13 -10 21
-10 15 0 84 -63 84 -77 0 -3 11 -21 25 -39 14 -18 25 -43 25 -56 0 -13 5 -29
11 -35 5 -5 12 -28 15 -49 3 -21 9 -43 14 -48 13 -13 13 -313 0 -321 -5 -3
-12 -28 -16 -56 -4 -27 -11 -52 -15 -55 -5 -3 -9 -16 -9 -28 0 -13 -7 -29 -15
-36 -8 -7 -15 -20 -15 -29 -1 -21 -94 -111 -140 -134 -27 -14 -54 -17 -110
-15 l-75 3 -3 439 c-1 287 1 443 8 450 5 5 10 17 10 25 0 8 14 30 32 48 29 30
38 33 89 33 32 0 61 -4 64 -10z"/>
<path d="M10730 10648 c-14 -5 -37 -10 -52 -10 -15 0 -32 -6 -39 -14 -6 -8
-20 -14 -31 -14 -63 0 -228 -180 -228 -249 0 -9 -5 -22 -12 -29 -7 -7 -14 -51
-16 -101 -5 -105 10 -164 74 -283 18 -33 303 -316 361 -357 22 -16 49 -42 60
-57 10 -14 35 -45 56 -69 20 -23 37 -49 37 -58 0 -9 4 -18 9 -22 6 -3 17 -19
25 -37 18 -36 23 -233 6 -243 -5 -3 -10 -14 -10 -23 0 -18 -78 -98 -117 -120
-34 -18 -153 -15 -194 5 -46 23 -142 120 -161 163 -9 19 -18 57 -21 83 -5 56
-17 72 -44 63 -18 -6 -20 -19 -26 -179 -5 -137 -3 -175 8 -186 20 -21 35 -4
35 39 0 62 53 75 93 23 10 -13 27 -23 37 -23 9 0 23 -7 30 -15 7 -8 20 -15 29
-15 9 0 22 -5 28 -11 14 -14 292 -15 319 -1 11 5 37 18 59 28 22 10 42 21 45
25 3 3 19 14 37 24 56 32 134 164 148 250 15 90 4 216 -26 280 -33 73 -85 138
-200 252 -68 68 -135 130 -149 139 -38 26 -140 127 -140 140 0 6 -9 19 -21 30
-11 10 -26 32 -33 49 -7 17 -22 39 -32 50 -17 16 -19 34 -19 148 0 95 3 131
13 135 6 2 12 11 12 21 0 19 59 81 77 81 6 0 16 7 23 15 9 11 33 15 90 15 77
0 87 -3 162 -49 42 -25 118 -121 118 -149 0 -10 4 -22 9 -27 6 -6 11 -30 13
-55 2 -37 6 -45 23 -45 19 0 20 8 23 145 1 83 7 154 13 167 14 25 6 53 -14 53
-9 0 -16 -15 -20 -41 -6 -48 -5 -46 -39 -54 -22 -6 -32 -1 -53 20 -29 32 -69
55 -95 55 -10 0 -20 4 -22 9 -1 5 -23 12 -47 16 -23 3 -54 10 -68 16 -32 12
-111 11 -143 -3z"/>
<path d="M13052 10653 c-129 -3 -143 -5 -140 -21 2 -11 15 -18 37 -20 40 -4
73 -33 101 -87 19 -38 20 -58 20 -747 0 -646 -1 -711 -17 -745 -28 -62 -52
-83 -94 -83 -27 0 -41 -5 -48 -19 -6 -10 -7 -21 -4 -25 3 -3 147 -6 320 -6
306 0 313 0 313 20 0 16 -7 20 -34 20 -57 0 -80 15 -109 70 l-27 52 0 248 c0
153 4 250 10 252 5 2 43 2 85 0 75 -4 76 -4 130 -54 30 -27 62 -66 71 -87 9
-20 22 -48 30 -63 8 -14 14 -35 14 -46 0 -12 5 -24 10 -27 6 -3 10 -21 10 -39
0 -18 7 -41 15 -52 8 -10 15 -31 15 -46 0 -15 5 -30 10 -33 6 -3 10 -17 10
-29 0 -13 7 -29 15 -36 8 -7 15 -20 15 -30 0 -9 11 -34 25 -54 14 -20 25 -40
25 -45 0 -13 97 -110 122 -121 12 -5 30 -14 38 -18 74 -42 127 -55 230 -56 66
-1 85 2 85 13 0 8 -20 20 -46 27 -48 14 -129 82 -129 108 0 8 -3 16 -7 18 -13
5 -43 68 -43 88 0 10 -4 22 -10 25 -5 3 -10 21 -10 39 0 18 -7 41 -15 52 -8
10 -15 31 -15 46 0 15 -4 30 -10 33 -5 3 -10 16 -10 29 0 12 -7 31 -15 42 -8
10 -15 26 -15 35 0 9 -7 22 -15 29 -8 7 -13 16 -10 20 3 4 -2 13 -10 20 -8 7
-15 20 -15 29 0 26 -129 144 -192 175 -53 27 -56 30 -39 43 11 7 29 14 40 16
12 2 27 9 33 15 7 7 19 12 28 12 20 0 146 128 155 158 3 12 11 22 16 22 5 0 9
8 9 19 0 10 7 24 15 31 8 7 15 21 15 31 0 10 5 21 10 24 6 3 10 21 10 39 0 19
7 47 15 62 20 40 20 198 0 238 -8 15 -15 38 -15 51 0 44 -59 141 -124 203 -35
34 -71 62 -79 62 -8 0 -20 7 -27 15 -7 8 -25 15 -41 15 -15 0 -31 5 -34 10 -3
6 -19 10 -34 10 -16 0 -48 7 -71 15 -43 15 -172 17 -598 8z m605 -107 c34 -34
65 -76 69 -92 4 -16 12 -36 19 -44 20 -24 27 -84 32 -274 2 -117 0 -183 -7
-190 -5 -5 -10 -25 -10 -44 0 -19 -6 -46 -14 -60 -7 -15 -20 -40 -27 -57 -19
-42 -74 -104 -128 -143 -44 -32 -48 -33 -131 -30 l-85 3 -3 434 c-1 283 1 438
8 445 5 5 10 20 10 32 0 13 17 37 41 59 41 37 42 37 103 31 59 -6 63 -9 123
-70z"/>
<path d="M9447 10628 c-8 -5 -5 -9 8 -13 45 -15 86 -41 105 -67 19 -26 20 -40
20 -775 0 -502 -3 -749 -10 -751 -5 -2 -10 -10 -10 -17 0 -17 -46 -50 -82 -59
-16 -3 -28 -12 -28 -19 0 -16 838 -11 858 5 16 14 17 189 0 206 -21 21 -28 13
-28 -32 0 -35 -7 -54 -33 -88 l-33 -43 -104 -3 -105 -2 -44 38 c-54 47 -62 78
-68 290 -5 181 -1 192 75 192 73 0 120 -39 132 -110 3 -22 11 -35 20 -35 13 0
15 26 15 165 0 140 -2 165 -15 165 -10 0 -16 -12 -18 -36 -2 -24 -14 -48 -36
-73 -32 -34 -38 -36 -93 -36 -52 0 -61 3 -71 23 -13 24 -10 827 3 905 6 34 17
51 57 87 l50 45 83 0 83 0 51 -46 c49 -44 51 -48 51 -100 0 -55 6 -64 28 -42
17 17 17 228 0 228 -596 5 -851 4 -861 -2z"/>
<path d="M11734 10628 c-5 -8 59 -38 81 -38 17 0 45 -33 45 -54 0 -10 7 -32
15 -50 23 -48 17 -1392 -6 -1448 -23 -57 -57 -88 -95 -88 -32 0 -53 -15 -39
-28 6 -6 172 -11 510 -15 140 -2 306 13 332 29 12 8 31 14 41 14 22 0 79 27
87 41 4 5 14 9 24 9 17 0 81 58 81 74 0 4 10 22 23 39 33 47 47 77 47 101 0
12 7 31 15 42 9 12 14 43 14 89 0 46 -5 77 -14 89 -8 11 -15 32 -15 48 0 15
-4 28 -10 28 -5 0 -10 8 -10 19 0 10 -7 24 -15 31 -8 7 -15 19 -15 26 0 17
-73 91 -103 104 -12 6 -29 14 -37 19 -8 5 -38 20 -67 33 -50 23 -51 25 -30 38
40 26 69 40 84 40 22 0 123 79 132 103 5 12 18 31 30 41 11 11 21 27 21 37 0
10 5 21 10 24 6 3 10 18 10 33 0 15 7 38 16 50 12 17 15 41 12 100 -4 72 -10
95 -46 182 -34 82 -208 220 -277 220 -12 0 -35 6 -51 14 -24 12 -97 14 -412
13 -211 0 -385 -5 -388 -9z m703 -33 c37 -8 143 -114 143 -144 0 -9 5 -22 11
-28 11 -11 30 -126 30 -183 0 -64 -18 -191 -29 -202 -6 -6 -12 -19 -12 -28 0
-42 -72 -149 -128 -190 -33 -24 -53 -29 -143 -38 -57 -5 -107 -8 -111 -5 -5 2
-8 169 -8 370 l0 366 26 34 c44 58 107 72 221 48z m-72 -865 c3 -5 20 -10 36
-10 56 0 149 -65 149 -104 0 -7 7 -19 15 -26 8 -7 15 -25 15 -40 0 -15 7 -41
15 -56 21 -41 21 -262 0 -290 -8 -10 -15 -31 -15 -47 0 -15 -11 -45 -25 -67
-14 -22 -25 -44 -25 -49 0 -10 -58 -57 -96 -78 -12 -6 -48 -15 -81 -18 -54 -7
-62 -5 -90 19 -17 14 -40 44 -52 66 -20 39 -21 55 -21 363 0 238 3 326 12 335
15 15 154 16 163 2z"/>
<path d="M10469 8170 c-31 -10 -62 -21 -70 -25 -7 -5 -22 -10 -34 -11 -30 -3
-216 -76 -210 -82 2 -3 22 2 42 11 59 24 173 67 179 67 3 0 -5 -15 -18 -32
-13 -18 -22 -35 -20 -38 3 -7 -51 -79 -60 -80 -12 0 -57 -53 -52 -61 2 -5 -5
-13 -16 -19 -11 -6 -18 -16 -14 -21 3 -6 -4 -13 -15 -16 -12 -3 -20 -11 -18
-17 2 -6 -22 -27 -52 -47 -31 -20 -89 -72 -130 -115 -41 -44 -81 -78 -88 -76
-8 2 -17 -6 -20 -17 -3 -12 -11 -21 -18 -21 -7 0 -26 -7 -41 -15 -16 -8 -50
-15 -76 -15 l-48 0 0 -84 c0 -115 7 -145 31 -139 19 5 19 6 2 19 -17 13 -17
15 1 29 12 9 15 15 7 15 -11 0 -11 3 -1 15 9 11 16 13 24 5 5 -5 18 -10 28
-10 10 0 18 -7 18 -15 0 -8 5 -15 11 -15 5 0 7 -4 4 -10 -3 -5 -1 -10 6 -10 7
0 47 -36 90 -80 42 -44 81 -80 87 -80 5 0 12 -6 15 -13 3 -8 22 -22 44 -32 21
-10 52 -29 69 -42 17 -12 36 -23 42 -23 6 0 12 -3 14 -7 4 -10 94 -53 109 -53
16 0 79 -51 74 -60 -3 -5 4 -6 15 -3 30 8 24 -10 -10 -31 -33 -19 -100 -29
-100 -15 0 5 -7 9 -15 9 -18 0 -20 -16 -2 -23 15 -6 -35 -27 -92 -38 -54 -11
-78 -28 -59 -41 9 -6 7 -8 -7 -4 -11 3 -40 2 -65 -4 -42 -9 -43 -9 -7 -7 20 2
37 1 37 -3 0 -16 183 9 202 28 7 7 22 12 34 12 13 0 25 4 29 9 3 5 20 13 37
17 18 3 39 10 48 14 85 43 125 60 141 60 10 0 19 4 19 10 0 5 11 12 25 16 14
3 25 9 25 13 0 3 11 20 25 36 20 25 23 27 18 8 l-5 -22 46 17 c25 10 48 21 52
25 4 4 22 7 41 7 18 0 33 5 33 10 0 6 13 10 29 10 17 0 33 5 36 10 4 6 -5 10
-19 10 -15 0 -35 11 -48 25 -12 14 -28 23 -35 21 -19 -8 -16 14 5 31 10 8 11
11 2 7 -13 -7 -13 -6 0 11 14 17 13 18 -8 13 -12 -4 -20 -2 -16 3 3 5 15 9 27
9 18 0 19 2 7 10 -12 8 -12 10 3 16 9 3 14 10 11 15 -6 10 17 50 47 82 10 11
15 26 12 34 -4 9 1 20 10 25 10 5 17 14 17 20 0 6 8 17 18 25 15 12 13 13 -18
8 -26 -5 -31 -4 -20 4 8 6 24 11 35 11 21 1 55 22 55 35 0 4 10 17 23 28 15
14 18 21 9 24 -8 3 -4 11 12 24 13 10 27 19 30 19 4 0 17 9 28 20 16 15 19 23
11 31 -9 9 -19 6 -40 -9 -70 -50 -276 -290 -385 -448 -31 -45 -65 -91 -77
-103 -11 -11 -27 -31 -36 -45 -10 -15 -27 -26 -39 -26 -57 0 -362 138 -409
184 -7 8 -26 20 -42 29 -33 17 -107 78 -203 168 -75 70 -75 92 -5 139 51 35
117 65 107 49 -15 -25 35 13 97 73 174 168 368 387 386 435 13 33 122 0 348
-105 140 -65 385 -226 385 -253 0 -5 -18 -18 -39 -29 -47 -23 -59 -39 -40 -51
8 -5 15 -4 17 1 2 6 9 10 16 10 7 0 25 11 40 25 15 14 38 25 52 25 22 0 23 2
12 20 -7 11 -24 20 -38 20 -22 1 -23 2 -9 13 15 11 15 15 -5 37 -12 14 -29 30
-38 35 -8 6 -64 45 -124 87 -115 82 -222 139 -342 183 -41 15 -92 42 -115 59
l-42 32 -56 -16z m476 -690 c-3 -5 -11 -10 -16 -10 -6 0 -7 5 -4 10 3 6 11 10
16 10 6 0 7 -4 4 -10z"/>
<path d="M9650 7871 c0 -62 3 -82 13 -78 15 5 13 135 -3 151 -7 7 -10 -17 -10
-73z"/>
<path d="M10497 7886 c-77 -28 -117 -55 -199 -136 -65 -64 -74 -84 -30 -70 57
20 190 40 262 40 114 0 211 -35 251 -90 12 -16 27 -27 32 -23 12 7 2 102 -15
140 -68 155 -149 192 -301 139z"/>
<path d="M9670 7731 c0 -12 5 -21 10 -21 6 0 10 6 10 14 0 8 -4 18 -10 21 -5
3 -10 -3 -10 -14z"/>
<path d="M10485 7619 c-71 -3 -137 -8 -145 -12 -8 -3 -41 -8 -74 -10 -32 -3
-62 -9 -68 -15 -5 -5 -12 -43 -15 -83 -6 -87 15 -173 53 -218 29 -35 117 -81
155 -81 82 0 232 76 296 150 37 42 93 141 93 162 0 9 -20 34 -44 56 -39 36
-61 47 -111 55 -5 1 -68 -1 -140 -4z"/>
<path d="M9752 6895 c0 -16 2 -22 5 -12 2 9 2 23 0 30 -3 6 -5 -1 -5 -18z"/>
</g>
</svg>
