<?xml version="1.0" standalone="no"?>
<!DOCTYPE svg PUBLIC "-//W3C//DTD SVG 20010904//EN"
 "http://www.w3.org/TR/2001/REC-SVG-20010904/DTD/svg10.dtd">
<svg version="1.0" xmlns="http://www.w3.org/2000/svg"
 width="512.000000pt" height="512.000000pt" viewBox="0 0 512.000000 512.000000"
 preserveAspectRatio="xMidYMid meet">

<g transform="translate(0.000000,512.000000) scale(0.100000,-0.100000)"
fill="#000000" stroke="none">
<path d="M2375 4949 c-319 -44 -601 -184 -830 -414 -259 -258 -404 -581 -421
-940 -3 -60 -1 -138 4 -172 l9 -63 -257 0 c-197 0 -269 -3 -315 -15 -215 -56
-365 -245 -365 -460 0 -113 249 -2315 270 -2385 35 -119 117 -219 227 -278
125 -66 5 -62 1860 -62 1186 0 1698 3 1735 11 167 35 310 166 358 329 21 70
270 2274 270 2385 -1 216 -151 404 -367 460 -43 11 -119 15 -313 15 l-257 0 9
63 c13 84 2 271 -22 384 -60 285 -188 522 -395 728 -209 210 -459 344 -746
400 -100 20 -356 28 -454 14z m355 -324 c562 -85 976 -590 947 -1154 -21 -403
-245 -757 -595 -939 -161 -83 -294 -120 -478 -129 -259 -13 -535 77 -744 245
-519 415 -561 1190 -90 1662 254 254 605 369 960 315z m-1500 -1642 c12 -32
46 -104 75 -160 l54 -103 -413 0 -413 0 -7 53 c-10 84 -7 146 8 175 18 34 54
68 86 81 14 6 145 10 307 10 l282 1 21 -57z m3297 31 c69 -51 81 -94 67 -233
l-7 -61 -413 0 -414 0 49 93 c27 50 62 123 77 160 l26 68 294 -3 c279 -3 294
-4 321 -24z m-2802 -658 c286 -215 672 -313 1030 -261 223 32 423 110 612 241
l93 64 545 0 c300 0 545 -1 545 -3 0 -2 -45 -407 -100 -900 -64 -579 -105
-907 -114 -925 -19 -35 -54 -68 -89 -81 -40 -15 -3334 -15 -3374 0 -35 13 -70
46 -89 81 -9 18 -50 346 -114 925 -55 493 -100 898 -100 900 0 2 246 3 548 3
l547 0 60 -44z"/>
<path d="M2980 3989 c-14 -5 -150 -134 -302 -287 l-278 -276 -117 116 c-91 90
-128 119 -161 129 -115 34 -227 -77 -193 -193 11 -36 46 -76 204 -235 163
-163 198 -193 229 -198 91 -17 85 -22 462 353 194 194 354 361 362 379 32 74
7 152 -65 200 -36 25 -96 30 -141 12z"/>
<path d="M1535 2066 c-41 -18 -83 -69 -90 -109 -3 -18 -5 -226 -3 -464 3 -418
4 -432 24 -459 39 -53 71 -69 134 -69 63 0 95 16 134 69 21 27 21 38 21 486 0
448 0 459 -21 486 -11 15 -32 37 -46 47 -33 25 -113 32 -153 13z"/>
<path d="M3455 2066 c-41 -18 -83 -69 -90 -109 -3 -18 -5 -226 -3 -464 3 -418
4 -432 24 -459 39 -53 71 -69 134 -69 63 0 95 16 134 69 21 27 21 38 21 486 0
448 0 459 -21 486 -11 15 -32 37 -46 47 -33 25 -113 32 -153 13z"/>
<path d="M2495 1746 c-41 -18 -83 -69 -90 -109 -3 -18 -5 -154 -3 -304 3 -256
4 -273 24 -299 39 -53 71 -69 134 -69 63 0 95 16 134 69 20 26 21 40 21 326 0
286 -1 300 -21 326 -11 15 -32 37 -46 47 -33 25 -113 32 -153 13z"/>
</g>
</svg>
